<svg width="18" height="18" viewBox="0 0 18 18" fill="none" xmlns="http://www.w3.org/2000/svg">
<path d="M14.25 2.25H13.5V0.75H12V2.25H6V0.75H4.5V2.25H3.75C2.925 2.25 2.25 2.925 2.25 3.75V14.25C2.25 15.075 2.925 15.75 3.75 15.75H14.25C15.075 15.75 15.75 15.075 15.75 14.25V3.75C15.75 2.925 15.075 2.25 14.25 2.25ZM14.25 14.25H3.75V6.75H14.25V14.25ZM3.75 5.25V3.75H14.25V5.25H3.75ZM7.92 13.095L12.3675 8.6475L11.5725 7.8525L7.92 11.505L6.3375 9.9225L5.5425 10.7175L7.92 13.095Z" fill="#E3253C"/>
</svg>
