<svg width="16" height="16" viewBox="0 0 16 16" fill="none" xmlns="http://www.w3.org/2000/svg">
<path d="M7.99992 1.33301C4.31992 1.33301 1.33325 4.31967 1.33325 7.99968C1.33325 11.6797 4.31992 14.6663 7.99992 14.6663C11.6799 14.6663 14.6666 11.6797 14.6666 7.99968C14.6666 4.31967 11.6799 1.33301 7.99992 1.33301ZM11.2999 6.81967L7.52659 10.593C7.26659 10.853 6.84659 10.853 6.58659 10.593L4.69992 8.70634C4.43992 8.44634 4.43992 8.02634 4.69992 7.76634C4.95992 7.50634 5.37992 7.50634 5.63992 7.76634L7.05325 9.17968L10.3533 5.87967C10.6133 5.61967 11.0333 5.61967 11.2933 5.87967C11.5599 6.13967 11.5599 6.55967 11.2999 6.81967Z" fill="#67C465"/>
</svg>
