<svg width="16" height="16" viewBox="0 0 16 16" fill="none" xmlns="http://www.w3.org/2000/svg">
<path d="M8.00065 1.3335C4.32065 1.3335 1.33398 4.32016 1.33398 8.00016C1.33398 11.6802 4.32065 14.6668 8.00065 14.6668C11.6807 14.6668 14.6673 11.6802 14.6673 8.00016C14.6673 4.32016 11.6807 1.3335 8.00065 1.3335ZM8.00065 13.3335C5.06065 13.3335 2.66732 10.9402 2.66732 8.00016C2.66732 5.06016 5.06065 2.66683 8.00065 2.66683C10.9407 2.66683 13.334 5.06016 13.334 8.00016C13.334 10.9402 10.9407 13.3335 8.00065 13.3335ZM10.3607 5.88016L7.06065 9.18016L5.64732 7.76683C5.38732 7.50683 4.96732 7.50683 4.70732 7.76683C4.44732 8.02683 4.44732 8.44683 4.70732 8.70683L6.59398 10.5935C6.85398 10.8535 7.27398 10.8535 7.53398 10.5935L11.3073 6.82016C11.5673 6.56016 11.5673 6.14016 11.3073 5.88016C11.0407 5.62016 10.6207 5.62016 10.3607 5.88016Z" fill="#67C465"/>
</svg>
