<svg width="16" height="16" viewBox="0 0 16 16" fill="none" xmlns="http://www.w3.org/2000/svg">
<path d="M6 1C6 0.447715 6.44772 0 7 0H9C9.55229 0 10 0.447715 10 1C10 1.55228 9.55229 2 9 2H7C6.44772 2 6 1.55228 6 1Z" fill="#4C75DF"/>
<path d="M6 7C6.55228 7 7 7.44772 7 8V11C7 11.5523 6.55228 12 6 12C5.44772 12 5 11.5523 5 11V8C5 7.44772 5.44772 7 6 7Z" fill="#4C75DF"/>
<path d="M9 8C9 7.44772 9.44771 7 10 7C10.5523 7 11 7.44772 11 8V11C11 11.5523 10.5523 12 10 12C9.44771 12 9 11.5523 9 11V8Z" fill="#4C75DF"/>
<path fill-rule="evenodd" clip-rule="evenodd" d="M2 15V5H1C0.447715 5 0 4.55228 0 4C0 3.44772 0.447715 3 1 3H15C15.5523 3 16 3.44772 16 4C16 4.55228 15.5523 5 15 5H14V15C14 15.5523 13.5523 16 13 16H3C2.44772 16 2 15.5523 2 15ZM12 5H4V14H12V5Z" fill="#4C75DF"/>
</svg>
