<svg width="16" height="16" viewBox="0 0 16 16" fill="none" xmlns="http://www.w3.org/2000/svg">
<path d="M11.0597 6H9.99967V2.66667C9.99967 2.3 9.69967 2 9.33301 2H6.66634C6.29967 2 5.99967 2.3 5.99967 2.66667V6H4.93967C4.34634 6 4.04634 6.72 4.46634 7.14L7.52634 10.2C7.78634 10.46 8.20634 10.46 8.46634 10.2L11.5263 7.14C11.9463 6.72 11.653 6 11.0597 6ZM3.33301 12.6667C3.33301 13.0333 3.63301 13.3333 3.99967 13.3333H11.9997C12.3663 13.3333 12.6663 13.0333 12.6663 12.6667C12.6663 12.3 12.3663 12 11.9997 12H3.99967C3.63301 12 3.33301 12.3 3.33301 12.6667Z" fill="#7A7774"/>
</svg>
