<svg width="20" height="20" viewBox="0 0 20 20" fill="none" xmlns="http://www.w3.org/2000/svg">
<path d="M9.16732 15C9.16732 15.9167 8.41732 16.6667 7.50065 16.6667C6.58398 16.6667 5.83398 15.9167 5.83398 15C5.83398 14.0833 6.58398 13.3333 7.50065 13.3333C8.41732 13.3333 9.16732 14.0833 9.16732 15ZM7.50065 8.33334C6.58398 8.33334 5.83398 9.08334 5.83398 10C5.83398 10.9167 6.58398 11.6667 7.50065 11.6667C8.41732 11.6667 9.16732 10.9167 9.16732 10C9.16732 9.08334 8.41732 8.33334 7.50065 8.33334ZM7.50065 3.33334C6.58398 3.33334 5.83398 4.08334 5.83398 5.00001C5.83398 5.91668 6.58398 6.66668 7.50065 6.66668C8.41732 6.66668 9.16732 5.91668 9.16732 5.00001C9.16732 4.08334 8.41732 3.33334 7.50065 3.33334ZM12.5007 6.66668C13.4173 6.66668 14.1673 5.91668 14.1673 5.00001C14.1673 4.08334 13.4173 3.33334 12.5007 3.33334C11.584 3.33334 10.834 4.08334 10.834 5.00001C10.834 5.91668 11.584 6.66668 12.5007 6.66668ZM12.5007 8.33334C11.584 8.33334 10.834 9.08334 10.834 10C10.834 10.9167 11.584 11.6667 12.5007 11.6667C13.4173 11.6667 14.1673 10.9167 14.1673 10C14.1673 9.08334 13.4173 8.33334 12.5007 8.33334ZM12.5007 13.3333C11.584 13.3333 10.834 14.0833 10.834 15C10.834 15.9167 11.584 16.6667 12.5007 16.6667C13.4173 16.6667 14.1673 15.9167 14.1673 15C14.1673 14.0833 13.4173 13.3333 12.5007 13.3333Z" fill="#A7A7A7"/>
</svg>
