<svg width="17" height="17" viewBox="0 0 17 17" fill="none" xmlns="http://www.w3.org/2000/svg">
<path d="M8.5 5.3125V8.5" stroke="#7A7774" stroke-width="1.4" stroke-linecap="round" stroke-linejoin="round"/>
<path d="M11.2605 10.0938L8.5 8.5" stroke="#7A7774" stroke-width="1.4" stroke-linecap="round" stroke-linejoin="round"/>
<path d="M12.2305 6.62183H14.8867V3.96558" stroke="#7A7774" stroke-width="1.4" stroke-linecap="round" stroke-linejoin="round"/>
<path d="M12.6322 12.6322C11.8149 13.4494 10.7736 14.006 9.64006 14.2315C8.50648 14.4569 7.3315 14.3412 6.26369 13.8989C5.19589 13.4566 4.28322 12.7076 3.6411 11.7466C2.99898 10.7856 2.65625 9.65579 2.65625 8.5C2.65625 7.34422 2.99898 6.21439 3.6411 5.25339C4.28322 4.29239 5.19589 3.54338 6.26369 3.10108C7.3315 2.65878 8.50648 2.54306 9.64006 2.76854C10.7736 2.99402 11.8149 3.55058 12.6322 4.36785L14.8861 6.62175" stroke="#7A7774" stroke-width="1.4" stroke-linecap="round" stroke-linejoin="round"/>
</svg>
