<svg width="18" height="18" viewBox="0 0 18 18" fill="none" xmlns="http://www.w3.org/2000/svg">
<path d="M15 2.25H3C2.175 2.25 1.5 2.925 1.5 3.75V14.25C1.5 15.075 2.175 15.75 3 15.75H15C15.825 15.75 16.5 15.075 16.5 14.25V3.75C16.5 2.925 15.825 2.25 15 2.25ZM15 14.25H3V3.75H15V14.25Z" fill="#E3253C"/>
<path d="M14.5575 7.815L13.4925 6.75L11.115 9.1275L10.0575 8.0625L9 9.12L11.115 11.25L14.5575 7.815Z" fill="#E3253C"/>
<path d="M7.5 5.25H3.75V6.75H7.5V5.25Z" fill="#E3253C"/>
<path d="M7.5 8.25H3.75V9.75H7.5V8.25Z" fill="#E3253C"/>
<path d="M7.5 11.25H3.75V12.75H7.5V11.25Z" fill="#E3253C"/>
</svg>
