<svg width="36" height="36" viewBox="0 0 36 36" fill="none" xmlns="http://www.w3.org/2000/svg">
<path d="M25.2004 2.59961H10.1004C9.70039 2.59961 9.40039 2.99961 9.40039 3.39961V32.6996C9.40039 33.0996 9.70039 33.4996 10.2004 33.4996H32.0004C32.4004 33.4996 32.8004 33.1996 32.8004 32.6996V10.0996C32.8004 9.89961 32.7004 9.69961 32.6004 9.59961L25.9004 2.89961C25.6004 2.69961 25.4004 2.59961 25.2004 2.59961Z" fill="white" stroke="#979593" stroke-width="2" stroke-miterlimit="10"/>
<path d="M25.0996 2.59961V9.39961C25.0996 9.79961 25.3996 10.1996 25.8996 10.1996H32.6996" stroke="#979593" stroke-width="2" stroke-miterlimit="10"/>
<path d="M4.5 27.7002H16.5C17.3 27.7002 18 27.0002 18 26.2002V14.2002C18 13.4002 17.3 12.7002 16.5 12.7002H4.5C3.7 12.7002 3 13.4002 3 14.2002V26.2002C3 27.1002 3.7 27.7002 4.5 27.7002Z" fill="#185ABD"/>
<path d="M8.0998 22.7004C8.0998 22.9004 8.0998 23.1004 8.0998 23.2004C8.0998 23.1004 8.0998 22.9004 8.1998 22.7004C8.1998 22.5004 8.2998 22.3004 8.2998 22.2004L9.5998 16.4004H11.2998L12.6998 22.1004C12.7998 22.4004 12.7998 22.7004 12.8998 23.2004C12.8998 22.9004 12.9998 22.6004 12.9998 22.2004L14.0998 16.5004H15.6998L13.7998 24.8004H11.9998L10.6998 19.3004C10.6998 19.1004 10.5998 18.9004 10.5998 18.7004C10.5998 18.4004 10.4998 18.3004 10.4998 18.1004C10.4998 18.2004 10.4998 18.4004 10.3998 18.7004C10.3998 19.0004 10.2998 19.2004 10.2998 19.3004L8.9998 24.7004H7.1998L5.2998 16.4004H6.8998L7.9998 22.3004C8.0998 22.4004 8.0998 22.5004 8.0998 22.7004Z" fill="white"/>
<path d="M8.9 27.7004C7.5 27.7004 6 27.7004 4.6 27.7004C3.6 27.7004 3 27.1004 3 26.1004C3 22.2004 3 18.3004 3 14.5004C3 13.5004 3.6 12.9004 4.6 12.9004C6 12.9004 7.5 12.9004 8.9 12.9004C9.1 12.9004 9.4 12.9004 9.6 12.9004C9.7 12.9004 9.8 12.9004 9.9 12.9004C12 12.9004 14.1 12.9004 16.3 12.9004C17.2 12.9004 17.8 13.5004 17.8 14.4004C17.8 14.8004 17.8 15.1004 17.8 15.5004C17.8 15.7004 17.8 16.0004 17.8 16.2004C17.8 16.7004 17.8 17.2004 17.8 17.7004C17.8 17.9004 17.8 18.2004 17.8 18.4004C17.8 18.9004 17.8 19.4004 17.8 19.9004C17.8 20.1004 17.8 20.4004 17.8 20.6004C17.8 21.1004 17.8 21.6004 17.8 22.1004C17.8 22.3004 17.8 22.6004 17.8 22.8004C17.8 23.3004 17.8 23.8004 17.8 24.3004C17.8 24.5004 17.8 24.8004 17.8 25.0004C17.8 25.4004 17.8 25.7004 17.8 26.1004C17.8 27.0004 17.2 27.6004 16.3 27.6004C14.1 27.6004 11.9 27.6004 9.7 27.6004C9.4 27.7004 9.1 27.7004 8.9 27.7004ZM10.4 19.2004C9.9 18.1004 9.3 17.0004 8.8 16.0004C8.7 15.9004 8.7 15.8004 8.5 15.8004C8.3 15.8004 8 15.8004 7.8 15.8004C7.4 15.8004 7 15.8004 6.6 15.8004C6.7 15.9004 6.7 16.0004 6.8 16.1004C7.6 17.4004 8.4 18.8004 9.2 20.1004C9.3 20.2004 9.3 20.3004 9.2 20.5004C8.3 21.8004 7.4 23.2004 6.6 24.6004C6.6 24.7004 6.5 24.7004 6.5 24.8004C7.2 24.8004 7.8 24.8004 8.4 24.8004C8.5 24.8004 8.6 24.8004 8.7 24.6004C9.3 23.6004 9.8 22.6004 10.4 21.6004C10.5 21.5004 10.5 21.4004 10.6 21.3004C11.2 22.4004 11.8 23.6004 12.4 24.7004C12.4 24.8004 12.5 24.8004 12.6 24.8004C13.2 24.8004 13.9 24.8004 14.6 24.8004C14.6 24.7004 14.5 24.6004 14.5 24.6004C13.7 23.2004 12.8 21.9004 12 20.5004C11.9 20.4004 11.9 20.3004 12 20.2004C12.8 18.9004 13.7 17.5004 14.5 16.2004C14.5 16.1004 14.6 16.1004 14.6 16.0004C14 16.0004 13.5 16.0004 12.9 16.0004C12.7 16.0004 12.6 16.0004 12.6 16.2004C11.6 17.1004 11 18.1004 10.4 19.2004Z" fill="#107C41"/>
<path d="M10.4 19.2006C10.9 18.1006 11.6 17.1006 12.1 16.0006C12.2 15.8006 12.3 15.8006 12.4 15.8006C13 15.8006 13.5 15.8006 14.1 15.8006C14.1 15.9006 14 16.0006 14 16.0006C13.2 17.3006 12.3 18.7006 11.5 20.0006C11.4 20.1006 11.4 20.2006 11.5 20.3006C12.4 21.7006 13.2 23.0006 14 24.4006C14 24.5006 14.1 24.5006 14.1 24.6006C13.4 24.6006 12.8 24.6006 12.1 24.6006C12 24.6006 12 24.5006 11.9 24.5006C11.3 23.4006 10.7 22.2006 10.1 21.1006C10 21.2006 10 21.3006 9.9 21.4006C9.3 22.4006 8.8 23.4006 8.2 24.4006C8.1 24.5006 8.1 24.6006 7.9 24.6006C7.3 24.6006 6.6 24.6006 6 24.6006C6.1 24.5006 6.1 24.4006 6.1 24.4006C7 23.0006 7.9 21.7006 8.7 20.3006C8.8 20.2006 8.8 20.1006 8.7 19.9006C7.9 18.6006 7.1 17.2006 6.3 15.9006C6.3 15.8006 6.2 15.7006 6.1 15.6006C6.5 15.6006 6.9 15.6006 7.3 15.6006C7.5 15.6006 7.8 15.6006 8 15.6006C8.1 15.6006 8.2 15.6006 8.3 15.8006C9.3 17.0006 9.9 18.1006 10.4 19.2006Z" fill="#FEFEFE"/>
<path d="M17.7998 15.4004C18.0998 15.4004 18.4998 15.4004 18.7998 15.4004C19.0998 15.4004 19.1998 15.5004 19.1998 15.8004C19.1998 16.0004 18.9998 16.1004 18.7998 16.1004C18.4998 16.1004 18.0998 16.1004 17.7998 16.1004C17.7998 15.9004 17.7998 15.7004 17.7998 15.4004Z" fill="#979593"/>
<path d="M17.7998 17.6006C18.0998 17.6006 18.4998 17.6006 18.7998 17.6006C19.0998 17.6006 19.1998 17.7006 19.1998 18.0006C19.1998 18.2006 18.9998 18.3006 18.7998 18.3006C18.4998 18.3006 18.0998 18.3006 17.7998 18.3006C17.7998 18.1006 17.7998 17.9006 17.7998 17.6006Z" fill="#979593"/>
<path d="M17.7998 19.9004C18.0998 19.9004 18.4998 19.9004 18.7998 19.9004C19.0998 19.9004 19.1998 20.0004 19.1998 20.3004C19.1998 20.5004 18.9998 20.6004 18.7998 20.6004C18.4998 20.6004 18.0998 20.6004 17.7998 20.6004C17.7998 20.4004 17.7998 20.1004 17.7998 19.9004Z" fill="#979593"/>
<path d="M17.7998 22.1006C18.0998 22.1006 18.4998 22.1006 18.7998 22.1006C19.0998 22.1006 19.1998 22.2006 19.1998 22.5006C19.1998 22.7006 18.9998 22.8006 18.7998 22.8006C18.4998 22.8006 18.0998 22.8006 17.7998 22.8006C17.7998 22.6006 17.7998 22.4006 17.7998 22.1006Z" fill="#979593"/>
<path d="M17.7998 24.3008C18.0998 24.3008 18.4998 24.3008 18.7998 24.3008C19.0998 24.3008 19.1998 24.4008 19.1998 24.7008C19.1998 24.9008 18.9998 25.0008 18.7998 25.0008C18.4998 25.0008 18.0998 25.0008 17.7998 25.0008C17.7998 24.8008 17.7998 24.6008 17.7998 24.3008Z" fill="#979593"/>
<path d="M22.2 16.1004C21.6 16.1004 21.1 16.1004 20.5 16.1004C20.2 16.1004 20.1 16.0004 20 15.8004C20 15.6004 20.2 15.4004 20.5 15.4004C21.7 15.4004 22.8 15.4004 24 15.4004C24.3 15.4004 24.4 15.5004 24.5 15.7004C24.5 15.9004 24.3 16.1004 24 16.1004C23.3 16.1004 22.7 16.1004 22.2 16.1004Z" fill="#979593"/>
<path d="M27.2996 16.1004C26.6996 16.1004 26.0996 16.1004 25.4996 16.1004C25.1996 16.1004 25.0996 16.0004 25.0996 15.7004C25.0996 15.5004 25.2996 15.4004 25.4996 15.4004C26.6996 15.4004 27.8996 15.4004 28.9996 15.4004C29.2996 15.4004 29.3996 15.5004 29.3996 15.8004C29.3996 16.0004 29.1996 16.1004 28.9996 16.1004C28.4996 16.2004 27.8996 16.1004 27.2996 16.1004Z" fill="#979593"/>
<path d="M22.2 17.7002C22.8 17.7002 23.4 17.7002 23.9 17.7002C24.2 17.7002 24.3 17.8002 24.3 18.0002C24.3 18.2002 24.1 18.4002 23.9 18.4002C22.7 18.4002 21.5 18.4002 20.4 18.4002C20.1 18.4002 20 18.3002 20 18.0002C20 17.8002 20.2 17.7002 20.4 17.7002C21 17.7002 21.6 17.7002 22.2 17.7002Z" fill="#979593"/>
<path d="M27.3002 18.4006C26.7002 18.4006 26.1002 18.4006 25.6002 18.4006C25.3002 18.4006 25.2002 18.3006 25.2002 18.0006C25.2002 17.8006 25.4002 17.6006 25.6002 17.6006C26.8002 17.6006 27.9002 17.6006 29.1002 17.6006C29.4002 17.6006 29.5002 17.7006 29.5002 18.0006C29.5002 18.2006 29.3002 18.4006 29.1002 18.4006C28.5002 18.4006 27.9002 18.4006 27.3002 18.4006Z" fill="#979593"/>
<path d="M22.1996 19.9004C22.7996 19.9004 23.3996 19.9004 23.9996 19.9004C24.2996 19.9004 24.3996 20.0004 24.3996 20.3004C24.3996 20.5004 24.1996 20.6004 23.9996 20.6004C22.7996 20.6004 21.5996 20.6004 20.4996 20.6004C20.1996 20.6004 20.0996 20.5004 20.0996 20.2004C20.0996 20.0004 20.2996 19.9004 20.4996 19.9004C20.9996 19.9004 21.5996 19.9004 22.1996 19.9004Z" fill="#979593"/>
<path d="M27.2996 20.6004C26.6996 20.6004 26.0996 20.6004 25.4996 20.6004C25.1996 20.6004 25.0996 20.5004 25.0996 20.2004C25.0996 20.0004 25.2996 19.9004 25.4996 19.9004C26.6996 19.9004 27.8996 19.9004 28.9996 19.9004C29.2996 19.9004 29.3996 20.0004 29.3996 20.3004C29.3996 20.5004 29.1996 20.6004 28.9996 20.6004C28.4996 20.6004 27.8996 20.6004 27.2996 20.6004Z" fill="#979593"/>
<path d="M22.1996 22.1006C22.7996 22.1006 23.3996 22.1006 23.9996 22.1006C24.2996 22.1006 24.3996 22.2006 24.3996 22.5006C24.3996 22.7006 24.1996 22.8006 23.9996 22.8006C22.7996 22.8006 21.5996 22.8006 20.4996 22.8006C20.1996 22.8006 20.0996 22.7006 20.0996 22.4006C20.0996 22.2006 20.2996 22.1006 20.4996 22.1006C20.9996 22.1006 21.5996 22.1006 22.1996 22.1006Z" fill="#979593"/>
<path d="M27.3002 22.1006C27.9002 22.1006 28.5002 22.1006 29.1002 22.1006C29.4002 22.1006 29.5002 22.2006 29.5002 22.5006C29.5002 22.7006 29.3002 22.8006 29.1002 22.8006C27.9002 22.8006 26.7002 22.8006 25.6002 22.8006C25.3002 22.8006 25.2002 22.7006 25.2002 22.4006C25.2002 22.2006 25.4002 22.1006 25.6002 22.1006C26.2002 22.1006 26.7002 22.1006 27.3002 22.1006Z" fill="#979593"/>
<path d="M22.2004 24.4008C22.8004 24.4008 23.3004 24.4008 23.9004 24.4008C24.2004 24.4008 24.3004 24.5008 24.3004 24.7008C24.3004 24.9008 24.1004 25.1008 23.8004 25.1008C22.6004 25.1008 21.5004 25.1008 20.3004 25.1008C20.0004 25.1008 19.9004 25.0008 19.9004 24.7008C19.9004 24.5008 20.1004 24.3008 20.4004 24.3008C21.0004 24.4008 21.6004 24.4008 22.2004 24.4008Z" fill="#979593"/>
<path d="M27.2996 25.1004C26.6996 25.1004 26.0996 25.1004 25.4996 25.1004C25.1996 25.1004 25.0996 25.0004 25.0996 24.7004C25.0996 24.5004 25.2996 24.4004 25.4996 24.4004C26.6996 24.4004 27.8996 24.4004 28.9996 24.4004C29.2996 24.4004 29.3996 24.5004 29.3996 24.8004C29.3996 25.0004 29.1996 25.1004 28.9996 25.1004C28.4996 25.1004 27.8996 25.1004 27.2996 25.1004Z" fill="#979593"/>
</svg>
