<?xml version="1.0" encoding="utf-8"?>
<!-- Generator: Adobe Illustrator 24.1.2, SVG Export Plug-In . SVG Version: 6.00 Build 0)  -->
<svg version="1.1" id="Layer_1"
    xmlns="http://www.w3.org/2000/svg"
    xmlns:xlink="http://www.w3.org/1999/xlink" x="0px" y="0px" viewBox="0 0 36 36" style="enable-background:new 0 0 36 36;" xml:space="preserve">
    <style type="text/css">
	.st0{fill:#FFFFFF;stroke:#979593;stroke-width:2;stroke-miterlimit:10;}
	.st1{fill:none;stroke:#979593;stroke-width:2;stroke-miterlimit:10;}
	.st2{fill:#C8C6C4;}
	.st3{fill:#E3253C;}
	.st4{fill:#FFFFFF;}
	.st5{font-family:'OpenSans-SemiBold';}
	.st6{font-size:10px;}
    </style>
    <path class="st0" d="M25.2,2.6H10.1C9.7,2.6,9.4,3,9.4,3.4v29.3c0,0.4,0.3,0.8,0.8,0.8h21.8c0.4,0,0.8-0.3,0.8-0.8V10.1
	c0-0.2-0.1-0.4-0.2-0.5l-6.7-6.7C25.6,2.7,25.4,2.6,25.2,2.6z"/>
    <path class="st1" d="M25.1,2.6v6.8c0,0.4,0.3,0.8,0.8,0.8h6.8"/>
    <path class="st2" d="M29.6,22.9H18v-0.8h11.6c0.2,0,0.4,0.2,0.4,0.4S29.8,22.9,29.6,22.9z M29.6,20.6H18v-0.8h11.6
	c0.2,0,0.4,0.2,0.4,0.4S29.8,20.6,29.6,20.6z M29.6,18.4H18v-0.8h11.6c0.2,0,0.4,0.2,0.4,0.4S29.8,18.4,29.6,18.4z M29.6,16.1H18
	v-0.7h11.6c0.2,0,0.4,0.2,0.4,0.4S29.8,16.1,29.6,16.1z M29.6,25.1H18v-0.8h11.6c0.2,0,0.4,0.2,0.4,0.4S29.8,25.1,29.6,25.1z"/>
    <g>
        <path class="st3" d="M4.3,27.7h16.8c1.2,0,2.1-0.7,2.1-1.5v-12c0-0.8-0.9-1.5-2.1-1.5H4.3c-1.2,0-2.1,0.7-2.1,1.5v12
		C2.2,27.1,3.1,27.7,4.3,27.7z"/>
        <text transform="matrix(1 0 0 1 3.2548 24.316)" class="st4 st5 st6">PDF</text>
    </g>
</svg>
