<?xml version="1.0" encoding="utf-8"?>
<!-- Generator: Adobe Illustrator 24.1.2, SVG Export Plug-In . SVG Version: 6.00 Build 0)  -->
<svg version="1.1" id="Layer_1" xmlns="http://www.w3.org/2000/svg" xmlns:xlink="http://www.w3.org/1999/xlink" x="0px" y="0px"
	 viewBox="0 0 36 36" style="enable-background:new 0 0 36 36;" xml:space="preserve">
<style type="text/css">
	.st0{fill:#FFFFFF;stroke:#979593;stroke-width:2;stroke-miterlimit:10;}
	.st1{fill:none;stroke:#979593;stroke-width:2;stroke-miterlimit:10;}
	.st2{fill:#979593;}
</style>
<g>
	<path class="st0" d="M22.1,2.8H7c-0.4,0-0.7,0.4-0.7,0.8v29.3c0,0.4,0.3,0.8,0.8,0.8h21.8c0.4,0,0.8-0.3,0.8-0.8V10.3
		c0-0.2-0.1-0.4-0.2-0.5l-6.7-6.7C22.5,2.9,22.3,2.8,22.1,2.8z"/>
	<path class="st1" d="M21.2,2.9v6.8c0,0.4,0.3,0.8,0.8,0.8h6.8"/>
	<path class="st2" d="M18,16.5c-0.6,0-1.1,0-1.7,0c-0.3,0-0.4-0.1-0.5-0.3c0-0.2,0.2-0.4,0.5-0.4c1.2,0,2.3,0,3.5,0
		c0.3,0,0.4,0.1,0.5,0.3c0,0.2-0.2,0.4-0.5,0.4C19,16.5,18.5,16.5,18,16.5z"/>
	<path class="st2" d="M12.2,16.4c-0.6,0-1.1,0-1.7,0c-0.3,0-0.4-0.1-0.5-0.3c0-0.2,0.2-0.4,0.5-0.4c1.2,0,2.3,0,3.5,0
		c0.3,0,0.4,0.1,0.5,0.3c0,0.2-0.2,0.4-0.5,0.4C13.3,16.4,12.7,16.4,12.2,16.4z"/>
	<path class="st2" d="M23.7,16.6c-0.6,0-1.1,0-1.7,0c-0.3,0-0.4-0.1-0.5-0.3c0-0.2,0.2-0.4,0.5-0.4c1.2,0,2.3,0,3.5,0
		c0.3,0,0.4,0.1,0.5,0.3c0,0.2-0.2,0.4-0.5,0.4C24.8,16.6,24.2,16.6,23.7,16.6z"/>
	<path class="st2" d="M18,19c-0.6,0-1.1,0-1.7,0c-0.3,0-0.4-0.1-0.5-0.3c0-0.2,0.2-0.4,0.5-0.4c1.2,0,2.3,0,3.5,0
		c0.3,0,0.4,0.1,0.5,0.3c0,0.2-0.2,0.4-0.5,0.4C19,19,18.5,19,18,19z"/>
	<path class="st2" d="M12.2,18.9c-0.6,0-1.1,0-1.7,0c-0.3,0-0.4-0.1-0.5-0.3c0-0.2,0.2-0.4,0.5-0.4c1.2,0,2.3,0,3.5,0
		c0.3,0,0.4,0.1,0.5,0.3c0,0.2-0.2,0.4-0.5,0.4C13.3,18.9,12.7,18.9,12.2,18.9z"/>
	<path class="st2" d="M23.7,19.1c-0.6,0-1.1,0-1.7,0c-0.3,0-0.4-0.1-0.5-0.3c0-0.2,0.2-0.4,0.5-0.4c1.2,0,2.3,0,3.5,0
		c0.3,0,0.4,0.1,0.5,0.3c0,0.2-0.2,0.4-0.5,0.4C24.8,19.1,24.2,19.1,23.7,19.1z"/>
	<path class="st2" d="M18,21.5c-0.6,0-1.1,0-1.7,0c-0.3,0-0.4-0.1-0.5-0.3c0-0.2,0.2-0.4,0.5-0.4c1.2,0,2.3,0,3.5,0
		c0.3,0,0.4,0.1,0.5,0.3c0,0.2-0.2,0.4-0.5,0.4C19,21.5,18.5,21.5,18,21.5z"/>
	<path class="st2" d="M12.2,21.4c-0.6,0-1.1,0-1.7,0c-0.3,0-0.4-0.1-0.5-0.3c0-0.2,0.2-0.4,0.5-0.4c1.2,0,2.3,0,3.5,0
		c0.3,0,0.4,0.1,0.5,0.3c0,0.2-0.2,0.4-0.5,0.4C13.3,21.4,12.7,21.4,12.2,21.4z"/>
	<path class="st2" d="M23.7,21.6c-0.6,0-1.1,0-1.7,0c-0.3,0-0.4-0.1-0.5-0.3c0-0.2,0.2-0.4,0.5-0.4c1.2,0,2.3,0,3.5,0
		c0.3,0,0.4,0.1,0.5,0.3c0,0.2-0.2,0.4-0.5,0.4C24.8,21.6,24.2,21.6,23.7,21.6z"/>
	<path class="st2" d="M18,24c-0.6,0-1.1,0-1.7,0c-0.3,0-0.4-0.1-0.5-0.3c0-0.2,0.2-0.4,0.5-0.4c1.2,0,2.3,0,3.5,0
		c0.3,0,0.4,0.1,0.5,0.3c0,0.2-0.2,0.4-0.5,0.4C19,24,18.5,24,18,24z"/>
	<path class="st2" d="M12.2,23.9c-0.6,0-1.1,0-1.7,0c-0.3,0-0.4-0.1-0.5-0.3c0-0.2,0.2-0.4,0.5-0.4c1.2,0,2.3,0,3.5,0
		c0.3,0,0.4,0.1,0.5,0.3c0,0.2-0.2,0.4-0.5,0.4C13.3,23.9,12.7,23.9,12.2,23.9z"/>
	<path class="st2" d="M23.7,24.1c-0.6,0-1.1,0-1.7,0c-0.3,0-0.4-0.1-0.5-0.3c0-0.2,0.2-0.4,0.5-0.4c1.2,0,2.3,0,3.5,0
		c0.3,0,0.4,0.1,0.5,0.3c0,0.2-0.2,0.4-0.5,0.4C24.8,24.1,24.2,24.1,23.7,24.1z"/>
	<path class="st2" d="M18,26.5c-0.6,0-1.1,0-1.7,0c-0.3,0-0.4-0.1-0.5-0.3c0-0.2,0.2-0.4,0.5-0.4c1.2,0,2.3,0,3.5,0
		c0.3,0,0.4,0.1,0.5,0.3c0,0.2-0.2,0.4-0.5,0.4C19,26.5,18.5,26.5,18,26.5z"/>
	<path class="st2" d="M12.2,26.4c-0.6,0-1.1,0-1.7,0c-0.3,0-0.4-0.1-0.5-0.3c0-0.2,0.2-0.4,0.5-0.4c1.2,0,2.3,0,3.5,0
		c0.3,0,0.4,0.1,0.5,0.3c0,0.2-0.2,0.4-0.5,0.4C13.3,26.4,12.7,26.4,12.2,26.4z"/>
	<path class="st2" d="M23.7,26.6c-0.6,0-1.1,0-1.7,0c-0.3,0-0.4-0.1-0.5-0.3c0-0.2,0.2-0.4,0.5-0.4c1.2,0,2.3,0,3.5,0
		c0.3,0,0.4,0.1,0.5,0.3c0,0.2-0.2,0.4-0.5,0.4C24.8,26.6,24.2,26.6,23.7,26.6z"/>
</g>
</svg>
