<svg width="16" height="16" viewBox="0 0 16 16" fill="none" xmlns="http://www.w3.org/2000/svg">
<path d="M12.5 8H9.5V9.125H12.5V8Z" fill="#E3253C"/>
<path d="M12.5 10.25H9.5V11.375H12.5V10.25Z" fill="#E3253C"/>
<path d="M14 4.25H10.25V2C10.25 1.175 9.575 0.5 8.75 0.5H7.25C6.425 0.5 5.75 1.175 5.75 2V4.25H2C1.175 4.25 0.5 4.925 0.5 5.75V14C0.5 14.825 1.175 15.5 2 15.5H14C14.825 15.5 15.5 14.825 15.5 14V5.75C15.5 4.925 14.825 4.25 14 4.25ZM7.25 4.25V2H8.75V4.25V5.75H7.25V4.25ZM14 14H2V5.75H5.75C5.75 6.575 6.425 7.25 7.25 7.25H8.75C9.575 7.25 10.25 6.575 10.25 5.75H14V14Z" fill="#E3253C"/>
<path d="M5.75 10.25C6.37132 10.25 6.875 9.74632 6.875 9.125C6.875 8.50368 6.37132 8 5.75 8C5.12868 8 4.625 8.50368 4.625 9.125C4.625 9.74632 5.12868 10.25 5.75 10.25Z" fill="#E3253C"/>
<path d="M7.31 11.135C6.83 10.925 6.305 10.8125 5.75 10.8125C5.195 10.8125 4.67 10.925 4.19 11.135C3.77 11.315 3.5 11.72 3.5 12.1775V12.5H8V12.1775C8 11.72 7.73 11.315 7.31 11.135Z" fill="#E3253C"/>
</svg>
