<svg width="18" height="18" viewBox="0 0 18 18" fill="none" xmlns="http://www.w3.org/2000/svg">
<path d="M12.7502 12.4649C13.2141 12.4649 13.5902 12.0888 13.5902 11.6249C13.5902 11.161 13.2141 10.7849 12.7502 10.7849C12.2862 10.7849 11.9102 11.161 11.9102 11.6249C11.9102 12.0888 12.2862 12.4649 12.7502 12.4649Z" fill="#7A7774"/>
<path d="M12.7503 13.125C12.2028 13.125 11.1078 13.395 11.0703 13.935C11.4453 14.4675 12.0603 14.8125 12.7503 14.8125C13.4403 14.8125 14.0553 14.4675 14.4303 13.935C14.3928 13.395 13.2978 13.125 12.7503 13.125Z" fill="#7A7774"/>
<path d="M13.5 8.3175V4.7025L7.875 2.25L2.25 4.7025V8.385C2.25 11.79 4.65 14.9775 7.875 15.75C8.2875 15.6525 8.685 15.51 9.075 15.3375C9.885 16.4925 11.2275 17.25 12.75 17.25C15.2325 17.25 17.25 15.2325 17.25 12.75C17.25 10.5225 15.63 8.6775 13.5 8.3175ZM8.25 12.75C8.25 13.17 8.31 13.5825 8.4225 13.965C8.2425 14.0475 8.0625 14.13 7.875 14.19C5.4975 13.44 3.75 11.01 3.75 8.385V5.685L7.875 3.885L12 5.685V8.3175C9.87 8.6775 8.25 10.5225 8.25 12.75ZM12.75 15.75C11.0925 15.75 9.75 14.4075 9.75 12.75C9.75 11.0925 11.0925 9.75 12.75 9.75C14.4075 9.75 15.75 11.0925 15.75 12.75C15.75 14.4075 14.4075 15.75 12.75 15.75Z" fill="#7A7774"/>
</svg>
