<svg width="20" height="20" viewBox="0 0 20 20" fill="none" xmlns="http://www.w3.org/2000/svg">
<path d="M15.8332 6.66667H4.1665C2.78317 6.66667 1.6665 7.78333 1.6665 9.16667V12.5C1.6665 13.4167 2.4165 14.1667 3.33317 14.1667H4.99984V15.8333C4.99984 16.75 5.74984 17.5 6.6665 17.5H13.3332C14.2498 17.5 14.9998 16.75 14.9998 15.8333V14.1667H16.6665C17.5832 14.1667 18.3332 13.4167 18.3332 12.5V9.16667C18.3332 7.78333 17.2165 6.66667 15.8332 6.66667ZM12.4998 15.8333H7.49984C7.0415 15.8333 6.6665 15.4583 6.6665 15V11.6667H13.3332V15C13.3332 15.4583 12.9582 15.8333 12.4998 15.8333ZM15.8332 10C15.3748 10 14.9998 9.625 14.9998 9.16667C14.9998 8.70833 15.3748 8.33333 15.8332 8.33333C16.2915 8.33333 16.6665 8.70833 16.6665 9.16667C16.6665 9.625 16.2915 10 15.8332 10ZM14.1665 2.5H5.83317C5.37484 2.5 4.99984 2.875 4.99984 3.33333V5C4.99984 5.45833 5.37484 5.83333 5.83317 5.83333H14.1665C14.6248 5.83333 14.9998 5.45833 14.9998 5V3.33333C14.9998 2.875 14.6248 2.5 14.1665 2.5Z" fill="#7A7774"/>
</svg>
