<svg width="16" height="16" viewBox="0 0 16 16" fill="none" xmlns="http://www.w3.org/2000/svg">
<path d="M5.22065 10.6667L3.33398 8.78008L4.27398 7.84008L5.21398 8.78008L7.57398 6.42008L8.51398 7.36008L5.22065 10.6667ZM11.6073 8.66675L12.6673 9.72675L11.7273 10.6667L10.6673 9.60675L9.60732 10.6667L8.66732 9.72675L9.72732 8.66675L8.66732 7.60675L9.60732 6.66675L10.6673 7.72675L11.7273 6.66675L12.6673 7.60675L11.6073 8.66675ZM13.334 4.00008H8.00065L6.66732 2.66675H2.66732C1.93398 2.66675 1.34065 3.26675 1.34065 4.00008L1.33398 12.0001C1.33398 12.7334 1.93398 13.3334 2.66732 13.3334H13.334C14.0673 13.3334 14.6673 12.7334 14.6673 12.0001V5.33341C14.6673 4.60008 14.0673 4.00008 13.334 4.00008ZM13.334 12.0001H2.66732V4.00008H6.11398L7.44732 5.33341H13.334V12.0001Z" fill="#7A7774"/>
</svg>
