<svg width="22" height="24" viewBox="0 0 22 24" fill="none" xmlns="http://www.w3.org/2000/svg">
<path fill-rule="evenodd" clip-rule="evenodd" d="M4 1C4 0.447715 4.44772 0 5 0H15C15.2652 0 15.5196 0.105357 15.7071 0.292893L21.7071 6.29289C21.8946 6.48043 22 6.73478 22 7V19C22 19.5523 21.5523 20 21 20H17V23C17 23.5523 16.5523 24 16 24H1C0.447715 24 0 23.5523 0 23V5C0 4.44772 0.447715 4 1 4H4V1ZM4 6H2V22H15V20H5C4.44772 20 4 19.5523 4 19V6ZM6 2V18H20V8H15C14.4477 8 14 7.55228 14 7V2H6ZM16 3.41421L18.5858 6H16V3.41421Z" fill="#4C75DF"/>
</svg>
