<svg width="18" height="18" viewBox="0 0 18 18" fill="none" xmlns="http://www.w3.org/2000/svg">
<path d="M6.48734 4.36496C7.01984 3.53996 7.94984 2.99996 8.99984 2.99996C10.6573 2.99996 11.9998 4.34246 11.9998 5.99996C11.9998 7.04996 11.4598 7.97996 10.6348 8.51246L6.48734 4.36496ZM14.9998 12.8775C14.9848 12.0525 14.5273 11.295 13.7923 10.9125C13.3873 10.7025 12.9448 10.5075 12.4648 10.3425L14.9998 12.8775ZM15.3673 15.3675L2.63234 2.63246C2.33984 2.33996 1.86734 2.33996 1.57484 2.63246C1.28234 2.92496 1.28234 3.39746 1.57484 3.68996L7.70984 9.82496C6.34484 9.99746 5.15234 10.425 4.18484 10.92C3.44984 11.31 2.99984 12.0825 2.99984 12.915V15H12.8773L14.3023 16.425C14.5948 16.7175 15.0673 16.7175 15.3598 16.425C15.6598 16.1325 15.6598 15.66 15.3673 15.3675Z" fill="#E3253C"/>
</svg>
