<svg width="22" height="22" viewBox="0 0 22 22" fill="none" xmlns="http://www.w3.org/2000/svg">
<path fill-rule="evenodd" clip-rule="evenodd" d="M7 0C6.44775 0 6 0.447723 6 1H1C0.447754 1 0 1.44772 0 2V21C0 21.5523 0.447754 22 1 22H21C21.5522 22 22 21.5523 22 21V2C22 1.44772 21.5522 1 21 1H16C16 0.447723 15.5522 0 15 0H7ZM6 3C6 3.55228 6.44775 4 7 4H15C15.5522 4 16 3.55228 16 3H20V20H18V11C18 10.4477 17.5522 10 17 10C16.4478 10 16 10.4477 16 11V20H14V8C14 7.44772 13.5522 7 13 7C12.4478 7 12 7.44772 12 8V20H10V12C10 11.4477 9.55225 11 9 11C8.44775 11 8 11.4477 8 12V20H6V16C6 15.4477 5.55225 15 5 15C4.44775 15 4 15.4477 4 16V20H2V3H6Z" fill="#4C75DF"/>
</svg>
