<svg width="24" height="24" viewBox="0 0 24 24" fill="none" xmlns="http://www.w3.org/2000/svg">
<path d="M8.29289 9.29289C8.68342 8.90237 9.31658 8.90237 9.70711 9.29289C10.0976 9.68342 10.0976 10.3166 9.70711 10.7071L7.70711 12.7071C7.31658 13.0976 6.68342 13.0976 6.29289 12.7071L5.29289 11.7071C4.90237 11.3166 4.90237 10.6834 5.29289 10.2929C5.68342 9.90237 6.31658 9.90237 6.70711 10.2929L7 10.5858L8.29289 9.29289Z" fill="#4C75DF"/>
<path d="M9.70711 16.2929C9.31658 15.9024 8.68342 15.9024 8.29289 16.2929L7 17.5858L6.70711 17.2929C6.31658 16.9024 5.68342 16.9024 5.29289 17.2929C4.90237 17.6834 4.90237 18.3166 5.29289 18.7071L6.29289 19.7071C6.68342 20.0976 7.31658 20.0976 7.70711 19.7071L9.70711 17.7071C10.0976 17.3166 10.0976 16.6834 9.70711 16.2929Z" fill="#4C75DF"/>
<path d="M11 11C11 10.4477 11.4477 10 12 10H18C18.5523 10 19 10.4477 19 11C19 11.5523 18.5523 12 18 12H12C11.4477 12 11 11.5523 11 11Z" fill="#4C75DF"/>
<path d="M18 17H12C11.4477 17 11 17.4477 11 18C11 18.5523 11.4477 19 12 19H18C18.5523 19 19 18.5523 19 18C19 17.4477 18.5523 17 18 17Z" fill="#4C75DF"/>
<path fill-rule="evenodd" clip-rule="evenodd" d="M7 0C7.55228 0 8 0.447715 8 1V2H16V1C16 0.447715 16.4477 0 17 0C17.5523 0 18 0.447715 18 1V2H21C22.6569 2 24 3.34315 24 5V21C24 22.6569 22.6569 24 21 24H3C1.34315 24 0 22.6569 0 21V5C0 3.34315 1.34315 2 3 2H6V1C6 0.447715 6.44772 0 7 0ZM16 4V5C16 5.55228 16.4477 6 17 6C17.5523 6 18 5.55228 18 5V4H21C21.5523 4 22 4.44772 22 5V21C22 21.5523 21.5523 22 21 22H3C2.44772 22 2 21.5523 2 21V5C2 4.44772 2.44772 4 3 4H6V5C6 5.55228 6.44772 6 7 6C7.55228 6 8 5.55228 8 5V4H16Z" fill="#4C75DF"/>
</svg>
