<svg width="16" height="16" viewBox="0 0 16 16" fill="none" xmlns="http://www.w3.org/2000/svg">
<path d="M12.6667 1.99999H12V1.33332C12 0.966656 11.7 0.666656 11.3333 0.666656C10.9667 0.666656 10.6667 0.966656 10.6667 1.33332V1.99999H5.33333V1.33332C5.33333 0.966656 5.03333 0.666656 4.66667 0.666656C4.3 0.666656 4 0.966656 4 1.33332V1.99999H3.33333C2.59333 1.99999 2.00667 2.59999 2.00667 3.33332L2 12.6667C2 13.4 2.59333 14 3.33333 14H12.6667C13.4 14 14 13.4 14 12.6667V3.33332C14 2.59999 13.4 1.99999 12.6667 1.99999ZM12 12.6667H4C3.63333 12.6667 3.33333 12.3667 3.33333 12V5.33332H12.6667V12C12.6667 12.3667 12.3667 12.6667 12 12.6667ZM5.33333 6.66666H7.33333C7.7 6.66666 8 6.96666 8 7.33332V9.33332C8 9.69999 7.7 9.99999 7.33333 9.99999H5.33333C4.96667 9.99999 4.66667 9.69999 4.66667 9.33332V7.33332C4.66667 6.96666 4.96667 6.66666 5.33333 6.66666Z" fill="#F6F6F6"/>
</svg>
