<svg width="16" height="16" viewBox="0 0 16 16" fill="none" xmlns="http://www.w3.org/2000/svg">
<path d="M7.99992 1.33301C4.31992 1.33301 1.33325 4.31967 1.33325 7.99968C1.33325 11.6797 4.31992 14.6663 7.99992 14.6663C11.6799 14.6663 14.6666 11.6797 14.6666 7.99968C14.6666 4.31967 11.6799 1.33301 7.99992 1.33301ZM7.99992 13.333C5.05992 13.333 2.66659 10.9397 2.66659 7.99968C2.66659 5.05967 5.05992 2.66634 7.99992 2.66634C10.9399 2.66634 13.3333 5.05967 13.3333 7.99968C13.3333 10.9397 10.9399 13.333 7.99992 13.333ZM10.3599 5.87967L7.05992 9.17968L5.64659 7.76634C5.38659 7.50634 4.96659 7.50634 4.70659 7.76634C4.44659 8.02634 4.44659 8.44634 4.70659 8.70634L6.59325 10.593C6.85325 10.853 7.27325 10.853 7.53325 10.593L11.3066 6.81967C11.5666 6.55967 11.5666 6.13967 11.3066 5.87967C11.0399 5.61967 10.6199 5.61967 10.3599 5.87967Z" fill="#969696"/>
</svg>
